<svg xmlns="http://www.w3.org/2000/svg" viewBox="0 0 920 490" width="100%" role="img" aria-label="Comparativo dos modos no mesmo dia" style="font-family:system-ui, -apple-system, &quot;Segoe UI&quot;, sans-serif;font-size:12px;max-width:920px"><rect width="920" height="490" fill="#fcfcfb"/><text x="0" y="18" fill="#0b0b0b" font-weight="600">Custo de energia da rede</text><text x="142" y="44" text-anchor="end" fill="#52514e">1-Rápido</text><path d="M150.0,32.0 H376.0 Q380.0,32.0 380.0,36.0 V44.0 Q380.0,48.0 376.0,48.0 H150.0 Z" fill="#c3c2b7"/><text x="386.0" y="44" fill="#0b0b0b" style="font-variant-numeric:tabular-nums">R$ 148,50</text><text x="142" y="74" text-anchor="end" fill="#52514e">2-Prioridade Solar</text><path d="M150.0,62.0 H346.2 Q350.2,62.0 350.2,66.0 V74.0 Q350.2,78.0 346.2,78.0 H150.0 Z" fill="#c3c2b7"/><text x="356.2" y="74" fill="#0b0b0b" style="font-variant-numeric:tabular-nums">R$ 129,23</text><text x="142" y="104" text-anchor="end" fill="#52514e">3-Solar e Bateria</text><path d="M150.0,92.0 H238.6 Q242.6,92.0 242.6,96.0 V104.0 Q242.6,108.0 238.6,108.0 H150.0 Z" fill="#c3c2b7"/><text x="248.6" y="104" fill="#0b0b0b" style="font-variant-numeric:tabular-nums">R$ 59,78</text><text x="142" y="134" text-anchor="end" fill="#52514e">4-Inteligente</text><path d="M150.0,122.0 H208.8 Q212.8,122.0 212.8,126.0 V134.0 Q212.8,138.0 208.8,138.0 H150.0 Z" fill="#2a78d6"/><text x="218.8" y="134" fill="#0b0b0b" style="font-variant-numeric:tabular-nums">R$ 40,54</text><text x="470" y="18" fill="#0b0b0b" font-weight="600">Compra no horário de ponta</text><text x="612" y="44" text-anchor="end" fill="#52514e">1-Rápido</text><path d="M620.0,32.0 H846.0 Q850.0,32.0 850.0,36.0 V44.0 Q850.0,48.0 846.0,48.0 H620.0 Z" fill="#c3c2b7"/><text x="856.0" y="44" fill="#0b0b0b" style="font-variant-numeric:tabular-nums">49,8 kWh</text><text x="612" y="74" text-anchor="end" fill="#52514e">2-Prioridade Solar</text><path d="M620.0,62.0 H828.4 Q832.4,62.0 832.4,66.0 V74.0 Q832.4,78.0 828.4,78.0 H620.0 Z" fill="#c3c2b7"/><text x="838.4" y="74" fill="#0b0b0b" style="font-variant-numeric:tabular-nums">46,0 kWh</text><text x="612" y="104" text-anchor="end" fill="#52514e">3-Solar e Bateria</text><path d="M620.0,92.0 H766.3 Q770.3,92.0 770.3,96.0 V104.0 Q770.3,108.0 766.3,108.0 H620.0 Z" fill="#c3c2b7"/><text x="776.3" y="104" fill="#0b0b0b" style="font-variant-numeric:tabular-nums">32,5 kWh</text><text x="612" y="134" text-anchor="end" fill="#52514e">4-Inteligente</text><path d="M620.0,122.0 H699.2 Q703.2,122.0 703.2,126.0 V134.0 Q703.2,138.0 699.2,138.0 H620.0 Z" fill="#2a78d6"/><text x="709.2" y="134" fill="#0b0b0b" style="font-variant-numeric:tabular-nums">18,0 kWh</text><text x="0" y="178" fill="#0b0b0b" font-weight="600">Recarga renovável</text><text x="142" y="204" text-anchor="end" fill="#52514e">1-Rápido</text><path d="M150.0,192.0 H265.9 Q269.9,192.0 269.9,196.0 V204.0 Q269.9,208.0 265.9,208.0 H150.0 Z" fill="#c3c2b7"/><text x="275.9" y="204" fill="#0b0b0b" style="font-variant-numeric:tabular-nums">44,2 %</text><text x="142" y="234" text-anchor="end" fill="#52514e">2-Prioridade Solar</text><path d="M150.0,222.0 H276.5 Q280.5,222.0 280.5,226.0 V234.0 Q280.5,238.0 276.5,238.0 H150.0 Z" fill="#c3c2b7"/><text x="286.5" y="234" fill="#0b0b0b" style="font-variant-numeric:tabular-nums">48,1 %</text><text x="142" y="264" text-anchor="end" fill="#52514e">3-Solar e Bateria</text><path d="M150.0,252.0 H364.3 Q368.3,252.0 368.3,256.0 V264.0 Q368.3,268.0 364.3,268.0 H150.0 Z" fill="#c3c2b7"/><text x="374.3" y="264" fill="#0b0b0b" style="font-variant-numeric:tabular-nums">80,5 %</text><text x="142" y="294" text-anchor="end" fill="#52514e">4-Inteligente</text><path d="M150.0,282.0 H376.0 Q380.0,282.0 380.0,286.0 V294.0 Q380.0,298.0 376.0,298.0 H150.0 Z" fill="#2a78d6"/><text x="386.0" y="294" fill="#0b0b0b" style="font-variant-numeric:tabular-nums">84,8 %</text><text x="470" y="178" fill="#0b0b0b" font-weight="600">Tempo de EVs parados</text><text x="612" y="204" text-anchor="end" fill="#52514e">1-Rápido</text><text x="626.0" y="204" fill="#0b0b0b" style="font-variant-numeric:tabular-nums">0 min</text><text x="612" y="234" text-anchor="end" fill="#52514e">2-Prioridade Solar</text><path d="M620.0,222.0 H846.0 Q850.0,222.0 850.0,226.0 V234.0 Q850.0,238.0 846.0,238.0 H620.0 Z" fill="#c3c2b7"/><text x="856.0" y="234" fill="#0b0b0b" style="font-variant-numeric:tabular-nums">90 min</text><text x="612" y="264" text-anchor="end" fill="#52514e">3-Solar e Bateria</text><path d="M620.0,252.0 H756.6 Q760.6,252.0 760.6,256.0 V264.0 Q760.6,268.0 756.6,268.0 H620.0 Z" fill="#c3c2b7"/><text x="766.6" y="264" fill="#0b0b0b" style="font-variant-numeric:tabular-nums">55 min</text><text x="612" y="294" text-anchor="end" fill="#52514e">4-Inteligente</text><text x="626.0" y="294" fill="#0b0b0b" style="font-variant-numeric:tabular-nums">0 min</text><text x="0" y="338" fill="#0b0b0b" font-weight="600">Margem líquida</text><text x="142" y="364" text-anchor="end" fill="#52514e">1-Rápido</text><path d="M150.0,352.0 H331.7 Q335.7,352.0 335.7,356.0 V364.0 Q335.7,368.0 331.7,368.0 H150.0 Z" fill="#c3c2b7"/><text x="341.7" y="364" fill="#0b0b0b" style="font-variant-numeric:tabular-nums">R$ 334,23</text><text x="142" y="394" text-anchor="end" fill="#52514e">2-Prioridade Solar</text><path d="M150.0,382.0 H319.8 Q323.8,382.0 323.8,386.0 V394.0 Q323.8,398.0 319.8,398.0 H150.0 Z" fill="#c3c2b7"/><text x="329.8" y="394" fill="#0b0b0b" style="font-variant-numeric:tabular-nums">R$ 312,82</text><text x="142" y="424" text-anchor="end" fill="#52514e">3-Solar e Bateria</text><path d="M150.0,412.0 H372.4 Q376.4,412.0 376.4,416.0 V424.0 Q376.4,428.0 372.4,428.0 H150.0 Z" fill="#c3c2b7"/><text x="382.4" y="424" fill="#0b0b0b" style="font-variant-numeric:tabular-nums">R$ 407,49</text><text x="142" y="454" text-anchor="end" fill="#52514e">4-Inteligente</text><path d="M150.0,442.0 H376.0 Q380.0,442.0 380.0,446.0 V454.0 Q380.0,458.0 376.0,458.0 H150.0 Z" fill="#2a78d6"/><text x="386.0" y="454" fill="#0b0b0b" style="font-variant-numeric:tabular-nums">R$ 413,95</text><text x="470" y="338" fill="#0b0b0b" font-weight="600">Energia entregue</text><text x="612" y="364" text-anchor="end" fill="#52514e">1-Rápido</text><path d="M620.0,352.0 H846.0 Q850.0,352.0 850.0,356.0 V364.0 Q850.0,368.0 846.0,368.0 H620.0 Z" fill="#c3c2b7"/><text x="856.0" y="364" fill="#0b0b0b" style="font-variant-numeric:tabular-nums">250,1 kWh</text><text x="612" y="394" text-anchor="end" fill="#52514e">2-Prioridade Solar</text><path d="M620.0,382.0 H827.8 Q831.8,382.0 831.8,386.0 V394.0 Q831.8,398.0 827.8,398.0 H620.0 Z" fill="#c3c2b7"/><text x="837.8" y="394" fill="#0b0b0b" style="font-variant-numeric:tabular-nums">230,3 kWh</text><text x="612" y="424" text-anchor="end" fill="#52514e">3-Solar e Bateria</text><path d="M620.0,412.0 H839.2 Q843.2,412.0 843.2,416.0 V424.0 Q843.2,428.0 839.2,428.0 H620.0 Z" fill="#c3c2b7"/><text x="849.2" y="424" fill="#0b0b0b" style="font-variant-numeric:tabular-nums">242,7 kWh</text><text x="612" y="454" text-anchor="end" fill="#52514e">4-Inteligente</text><path d="M620.0,442.0 H827.8 Q831.8,442.0 831.8,446.0 V454.0 Q831.8,458.0 827.8,458.0 H620.0 Z" fill="#2a78d6"/><text x="837.8" y="454" fill="#0b0b0b" style="font-variant-numeric:tabular-nums">230,3 kWh</text></svg>